<?xml version="1.0" encoding="UTF-8"?>
<svg width="256px" height="256px" viewBox="0 0 256 256" version="1.1" xmlns="http://www.w3.org/2000/svg" preserveAspectRatio="xMidYMid">
    <g>
        <path d="M128,0 L128,0 L128,0 L0,45.522 L19.87,213.442 L128,273.778 L128,273.778 L128,273.778 L236.13,213.442 L256,45.522 L128,0 Z" fill="#DD0031"/>
        <path d="M128,0 L128,30.364 L128,30.306 L128,168.872 L128,168.872 L128,273.778 L128,273.778 L236.13,213.442 L256,45.522 L128,0 Z" fill="#C3002F"/>
        <path d="M128,30.364 L47.917,210.135 L47.917,210.135 L76.469,210.135 L76.469,210.135 L92.586,166.627 L127.999,166.627 L127.999,166.627 L128,166.627 L128,166.627 L163.413,166.627 L179.53,210.135 L179.53,210.135 L208.082,210.135 L208.082,210.135 L128,30.364 L128,30.364 L128,30.364 L128,30.364 L128,30.364 Z M128,88.766 L152.602,140.125 L128.495,140.125 L128,140.125 L128,140.125 L103.398,140.125 L128,88.766 L128,88.766 Z" fill="#FFFFFF"/>
    </g>
</svg> 