<?xml version="1.0" encoding="UTF-8"?>
<svg width="256px" height="256px" viewBox="0 0 256 256" version="1.1" xmlns="http://www.w3.org/2000/svg" preserveAspectRatio="xMidYMid">
    <g>
        <path d="M128,0 C57.28,0 0,57.28 0,128 C0,198.72 57.28,256 128,256 C198.72,256 256,198.72 256,128 C256,57.28 198.72,0 128,0 Z" fill="#00599C"/>
        <path d="M200.654,128 L184.234,144.42 L167.814,128 L184.234,111.58 L200.654,128 Z M226.654,128 L210.234,144.42 L193.814,128 L210.234,111.58 L226.654,128 Z" fill="#FFFFFF"/>
        <path d="M127.474,127.526 C127.474,112.641 115.359,100.526 100.474,100.526 C85.59,100.526 73.474,112.641 73.474,127.526 C73.474,142.41 85.59,154.526 100.474,154.526 C115.359,154.526 127.474,142.41 127.474,127.526 Z M154.474,127.526 C154.474,157.796 130.244,182.026 100.474,182.026 C70.705,182.026 46.474,157.796 46.474,127.526 C46.474,97.256 70.705,73.026 100.474,73.026 C130.244,73.026 154.474,97.256 154.474,127.526 Z" fill="#FFFFFF"/>
    </g>
</svg> 