<?xml version="1.0" encoding="UTF-8"?>
<svg width="256px" height="256px" viewBox="0 0 256 256" version="1.1" xmlns="http://www.w3.org/2000/svg" preserveAspectRatio="xMidYMid">
    <g>
        <path d="M128,0 C57.28,0 0,57.28 0,128 C0,198.72 57.28,256 128,256 C198.72,256 256,198.72 256,128 C256,57.28 198.72,0 128,0 Z M128,240 C66.24,240 16,189.76 16,128 C16,66.24 66.24,16 128,16 C189.76,16 240,66.24 240,128 C240,189.76 189.76,240 128,240 Z" fill="#1572B6"/>
        <path d="M128,32 C74.98,32 32,74.98 32,128 C32,181.02 74.98,224 128,224 C181.02,224 224,181.02 224,128 C224,74.98 181.02,32 128,32 Z M186.63,146.34 L140.29,146.34 L140.29,168.04 L169.77,168.04 L166.56,182.85 L128,193.31 L89.44,182.85 L86.23,168.04 L115.71,168.04 L115.71,146.34 L69.37,146.34 L66.16,131.53 L128,120.07 L189.84,131.53 L186.63,146.34 Z M128,62.69 L166.56,73.15 L169.77,87.96 L140.29,87.96 L140.29,109.66 L186.63,109.66 L189.84,124.47 L128,135.93 L66.16,124.47 L69.37,109.66 L115.71,109.66 L115.71,87.96 L86.23,87.96 L89.44,73.15 L128,62.69 Z" fill="#1572B6"/>
    </g>
</svg> 