<?xml version="1.0" encoding="UTF-8"?>
<svg width="256px" height="256px" viewBox="0 0 256 256" version="1.1" xmlns="http://www.w3.org/2000/svg" preserveAspectRatio="xMidYMid">
    <g>
        <path d="M134.45353,238.633093 C134.45353,238.633093 132.966315,233.609318 132.966315,228.585544 C132.966315,223.561769 134.45353,205.964075 134.45353,205.964075 C134.45353,205.964075 115.218622,196.830563 111.955362,175.705591 C108.692103,154.58062 115.218622,116.825562 115.218622,116.825562 C115.218622,116.825562 116.705837,106.778013 120.682132,100.840202 C124.658427,94.902391 134.45353,84.8548421 134.45353,84.8548421 L135.940745,17.3097712 L137.42796,84.8548421 C137.42796,84.8548421 147.223063,94.902391 151.199358,100.840202 C155.175653,106.778013 156.662868,116.825562 156.662868,116.825562 C156.662868,116.825562 163.189387,154.58062 159.926128,175.705591 C156.662868,196.830563 137.42796,205.964075 137.42796,205.964075 C137.42796,205.964075 138.915175,223.561769 138.915175,228.585544 C138.915175,233.609318 137.42796,238.633093 137.42796,238.633093 L134.45353,238.633093 Z" fill="#599636"/>
    </g>
</svg> 