<?xml version="1.0" encoding="UTF-8"?>
<svg width="256px" height="256px" viewBox="0 0 256 256" version="1.1" xmlns="http://www.w3.org/2000/svg" preserveAspectRatio="xMidYMid">
    <g>
        <path d="M0,222.991225 C0,241.223474 14.7785318,256 33.0087747,256 L222.991225,256 C241.223474,256 256,241.221468 256,222.991225 L256,33.0087747 C256,14.7765263 241.221468,0 222.991225,0 L33.0087747,0 C14.7765263,0 0,14.7785318 0,33.0087747 L0,222.991225 Z" fill="#CC0000"/>
        <path d="M155.493483,51.4171451 L155.493483,153.322929 C155.493483,153.322929 142.25771,154.337145 130.679561,154.337145 C107.505738,154.337145 87.3907706,144.022013 87.3907706,118.175373 C87.3907706,92.9908998 107.019103,80.7535794 131.21721,80.7535794 C137.64493,80.7535794 143.592015,81.2800036 155.493483,84.8374504 L155.493483,51.4171451 Z M204.668015,51.4171451 L204.668015,143.007797 C204.668015,171.910255 198.721875,186.981671 187.347111,198.351435 C176.509971,209.188575 161.443484,214.604684 138.269661,214.604684 C124.507249,214.604684 109.440762,212.57625 95.1412766,207.697765 L95.1412766,174.277459 C109.440762,180.223599 124.507249,183.243947 138.269661,183.243947 C150.707833,183.243947 158.995963,180.760234 164.405437,175.82889 C169.814912,170.897546 172.309626,163.146039 172.309626,149.490561 L172.309626,144.022013 C159.871453,147.579459 148.496689,149.490561 137.64493,149.490561 C100.013751,149.490561 72.3242243,128.490505 72.3242243,98.4070079 C72.3242243,62.2542789 101.564591,45.4710048 155.493483,45.4710048 C173.860466,45.4710048 191.153814,47.3821073 204.668015,51.4171451 Z" fill="#FFFFFF"/>
    </g>
</svg> 