<?xml version="1.0" encoding="UTF-8"?>
<svg width="64px" height="64px" viewBox="0 0 64 64" version="1.1" xmlns="http://www.w3.org/2000/svg">
    <g stroke="none" stroke-width="1" fill="none" fill-rule="evenodd">
        <path d="M8.11,24.509c-1.242,0 -2.25,1.008 -2.25,2.25l0,11.251c0,1.242 1.008,2.25 2.25,2.25c1.242,0 2.25,-1.008 2.25,-2.25l0,-11.251c0,-1.242 -1.008,-2.25 -2.25,-2.25Z" fill="#3DDC84"/>
        <path d="M55.89,24.509c-1.242,0 -2.25,1.008 -2.25,2.25l0,11.251c0,1.242 1.008,2.25 2.25,2.25c1.242,0 2.25,-1.008 2.25,-2.25l0,-11.251c0,-1.242 -1.008,-2.25 -2.25,-2.25Z" fill="#3DDC84"/>
        <path d="M44.639,13.258l3.182,-5.864c0.182,-0.334 0.058,-0.754 -0.276,-0.936c-0.334,-0.182 -0.754,-0.058 -0.936,0.276l-3.224,5.94c-2.486,-1.098 -5.264,-1.714 -8.385,-1.714c-3.121,0 -5.899,0.616 -8.385,1.714l-3.224,-5.94c-0.182,-0.334 -0.602,-0.458 -0.936,-0.276c-0.334,0.182 -0.458,0.602 -0.276,0.936l3.182,5.864c-6.242,3.224 -10.427,9.341 -10.427,16.251l39.132,0c0,-6.91 -4.185,-13.027 -10.427,-16.251Z" fill="#3DDC84"/>
        <path d="M14.611,42.01l0,17.001c0,1.242 1.008,2.25 2.25,2.25l4.5,0l0,6.751c0,1.242 1.008,2.25 2.25,2.25c1.242,0 2.25,-1.008 2.25,-2.25l0,-6.751l6.139,0l0,6.751c0,1.242 1.008,2.25 2.25,2.25c1.242,0 2.25,-1.008 2.25,-2.25l0,-6.751l4.5,0c1.242,0 2.25,-1.008 2.25,-2.25l0,-17.001l-28.639,0Z" fill="#3DDC84"/>
        <circle cx="23.5" cy="21.009" r="2.25" fill="#FFFFFF"/>
        <circle cx="40.5" cy="21.009" r="2.25" fill="#FFFFFF"/>
    </g>
</svg> 