<?xml version="1.0" encoding="UTF-8"?>
<svg width="64px" height="64px" viewBox="0 0 64 64" version="1.1" xmlns="http://www.w3.org/2000/svg">
    <g stroke="none" stroke-width="1" fill="none" fill-rule="evenodd">
        <polygon fill="#DD0031" points="32,0 32,0 32,0 0,11.2 4.9,52.8 32,64 32,64 32,64 59.1,52.8 64,11.2"/>
        <polygon fill="#C3002F" points="32,0 32,7.1 32,7.1 32,39.6 32,39.6 32,64 32,64 59.1,52.8 64,11.2"/>
        <path d="M32,7.1L12.2,50.2l7.4-0.1l4-9.9h16.8l4,9.9l7.4,0.1L32,7.1L32,7.1z M32,21.5l6.3,13.2H25.7L32,21.5z" fill="#FFFFFF"/>
    </g>
</svg> 