<?xml version="1.0" encoding="UTF-8"?>
<svg width="64px" height="64px" viewBox="0 0 64 64" version="1.1" xmlns="http://www.w3.org/2000/svg">
    <g stroke="none" stroke-width="1" fill="none" fill-rule="evenodd">
        <path d="M0,32C0,14.327,14.327,0,32,0c17.673,0,32,14.327,32,32c0,17.673-14.327,32-32,32C14.327,64,0,49.673,0,32z" fill="#563D7C"/>
        <path d="M27.5,16v8h4.7c1.7,0,3.1,0.4,4.1,1.2c1,0.8,1.5,2,1.5,3.6c0,1.6-0.5,2.8-1.5,3.6c-1,0.8-2.4,1.2-4.1,1.2h-4.7v-8h-5v24h5v-8h4.7c3.3,0,5.9-0.8,7.8-2.4c1.9-1.6,2.8-3.8,2.8-6.6c0-2.8-0.9-5-2.8-6.6c-1.9-1.6-4.5-2.4-7.8-2.4H27.5z" fill="#FFFFFF"/>
    </g>
</svg> 