<?xml version="1.0" encoding="UTF-8"?>
<svg width="64px" height="64px" viewBox="0 0 64 64" version="1.1" xmlns="http://www.w3.org/2000/svg">
    <g stroke="none" stroke-width="1" fill="none" fill-rule="evenodd">
        <path d="M32,0C14.327,0,0,14.327,0,32c0,17.673,14.327,32,32,32s32-14.327,32-32C64,14.327,49.673,0,32,0z" fill="#2496ED"/>
        <path d="M15,32h8v-8h-8V32z M25,32h8v-8h-8V32z M35,32h8v-8h-8V32z M15,22h8v-8h-8V22z M25,22h8v-8h-8V22z" fill="#FFFFFF"/>
        <path d="M45,22c-1.657,0-3,1.343-3,3s1.343,3,3,3s3-1.343,3-3S46.657,22,45,22z" fill="#FFFFFF"/>
    </g>
</svg> 