<?xml version="1.0" encoding="UTF-8"?>
<svg width="64px" height="64px" viewBox="0 0 64 64" version="1.1" xmlns="http://www.w3.org/2000/svg">
    <g stroke="none" stroke-width="1" fill="none" fill-rule="evenodd">
        <rect fill="#F7DF1E" x="0" y="0" width="64" height="64"/>
        <path d="M42.5,50.5c1.2,2,2.8,3.4,5.6,3.4c2.4,0,3.9-1.2,3.9-2.8c0-2-1.6-2.7-4.2-3.8l-1.4-0.6c-4.2-1.8-7-4-7-8.7c0-4.3,3.3-7.6,8.4-7.6c3.7,0,6.3,1.3,8.2,4.6l-4.5,2.9c-1-1.8-2-2.5-3.7-2.5c-1.7,0-2.8,1.1-2.8,2.5c0,1.7,1.1,2.4,3.6,3.5l1.4,0.6c4.9,2.1,7.7,4.3,7.7,9.1c0,5.2-4.1,8-9.5,8c-5.3,0-8.7-2.5-10.4-5.8L42.5,50.5z M23.1,51c0.9,1.6,1.7,3,3.7,3c1.9,0,3.1-0.7,3.1-3.6V31.8h6v18.7c0,6.2-3.6,9-9,9c-4.8,0-7.6-2.5-9-5.5L23.1,51z" fill="#000000"/>
    </g>
</svg> 