<?xml version="1.0" encoding="UTF-8"?>
<svg width="64px" height="64px" viewBox="0 0 64 64" version="1.1" xmlns="http://www.w3.org/2000/svg">
    <defs>
        <linearGradient x1="32.5264395%" y1="108.456933%" x2="67.4735605%" y2="-8.45693296%" id="linearGradient-1">
            <stop stop-color="#37BF6E" offset="0%"/>
            <stop stop-color="#3DDC84" offset="100%"/>
        </linearGradient>
    </defs>
    <g stroke="none" stroke-width="1" fill="none" fill-rule="evenodd">
        <path d="M32,0 C14.327,0 0,14.327 0,32 C0,49.673 14.327,64 32,64 C49.673,64 64,49.673 64,32 C64,14.327 49.673,0 32,0 Z M32,8 C45.255,8 56,18.745 56,32 C56,45.255 45.255,56 32,56 C18.745,56 8,45.255 8,32 C8,18.745 18.745,8 32,8 Z" fill="url(#linearGradient-1)"/>
        <path d="M32,16 C23.163,16 16,23.163 16,32 C16,40.837 23.163,48 32,48 C40.837,48 48,40.837 48,32 C48,23.163 40.837,16 32,16 Z M32,24 C36.418,24 40,27.582 40,32 C40,36.418 36.418,40 32,40 C27.582,40 24,36.418 24,32 C24,27.582 27.582,24 32,24 Z" fill="#083042"/>
    </g>
</svg> 