<?xml version="1.0" encoding="UTF-8"?>
<svg width="64px" height="64px" viewBox="0 0 64 64" version="1.1" xmlns="http://www.w3.org/2000/svg">
    <g stroke="none" stroke-width="1" fill="none" fill-rule="evenodd">
        <path d="M32,0C14.327,0,0,14.327,0,32c0,17.673,14.327,32,32,32s32-14.327,32-32C64,14.327,49.673,0,32,0z" fill="#326CE5"/>
        <path d="M32,16l4.5,13.856L48,32l-11.5,2.144L32,48l-4.5-13.856L16,32l11.5-2.144L32,16z" fill="#FFFFFF"/>
        <path d="M32,22l2.598,8L40,32l-5.402,2L32,42l-2.598-8L24,32l5.402-2L32,22z" fill="#326CE5"/>
    </g>
</svg> 