<?xml version="1.0" encoding="UTF-8"?>
<svg width="64px" height="64px" viewBox="0 0 64 64" version="1.1" xmlns="http://www.w3.org/2000/svg">
    <g stroke="none" stroke-width="1" fill="none" fill-rule="evenodd">
        <path d="M32,0C14.327,0,0,14.327,0,32c0,17.673,14.327,32,32,32s32-14.327,32-32C64,14.327,49.673,0,32,0z" fill="#00684A"/>
        <path d="M32,16c-1.5,0-2.7,1.2-2.7,2.7v26.7c0,1.5,1.2,2.7,2.7,2.7s2.7-1.2,2.7-2.7V18.7C34.7,17.2,33.5,16,32,16z M40,24c-1.5,0-2.7,1.2-2.7,2.7v10.7c0,1.5,1.2,2.7,2.7,2.7s2.7-1.2,2.7-2.7V26.7C42.7,25.2,41.5,24,40,24z M24,24c-1.5,0-2.7,1.2-2.7,2.7v10.7c0,1.5,1.2,2.7,2.7,2.7s2.7-1.2,2.7-2.7V26.7C26.7,25.2,25.5,24,24,24z" fill="#FFFFFF"/>
    </g>
</svg> 