<?xml version="1.0" encoding="UTF-8"?>
<svg width="64px" height="64px" viewBox="0 0 64 64" version="1.1" xmlns="http://www.w3.org/2000/svg">
    <g stroke="none" stroke-width="1" fill="none" fill-rule="evenodd">
        <path d="M32,0c-1.7,0-3.4,0.4-4.9,1.2L7.8,13.5C4.8,15.2,3,18.4,3,21.8v24.4c0,3.4,1.8,6.6,4.8,8.3l19.3,12.3c1.5,0.8,3.2,1.2,4.9,1.2s3.4-0.4,4.9-1.2l19.3-12.3c3-1.7,4.8-4.9,4.8-8.3V21.8c0-3.4-1.8-6.6-4.8-8.3L36.9,1.2C35.4,0.4,33.7,0,32,0z" fill="#539E43"/>
        <path d="M55.1,44.9c-0.2,0.3-0.5,0.5-0.8,0.7l-6.6,3.8l-4.5,2.6c-0.7,0.4-1.5,0.6-2.3,0.6c-0.8,0-1.6-0.2-2.3-0.6l-4.5-2.6l-6.6-3.8c-0.3-0.2-0.6-0.4-0.8-0.7l-0.1-0.1V19.1c0-0.3,0.2-0.6,0.5-0.7l6.6-3.8l4.5-2.6c0.7-0.4,1.5-0.6,2.3-0.6s1.6,0.2,2.3,0.6l4.5,2.6l6.6,3.8c0.3,0.2,0.5,0.4,0.5,0.7v25.7L55.1,44.9z" fill="#FFFFFF"/>
    </g>
</svg> 