<?xml version="1.0" encoding="UTF-8"?>
<svg width="64px" height="64px" viewBox="0 0 64 64" version="1.1" xmlns="http://www.w3.org/2000/svg">
    <g stroke="none" stroke-width="1" fill="none" fill-rule="evenodd">
        <path d="M32,0C14.327,0,0,14.327,0,32c0,17.673,14.327,32,32,32s32-14.327,32-32C64,14.327,49.673,0,32,0z M32.5,48 c-8.837,0-16-7.163-16-16s7.163-16,16-16s16,7.163,16,16S41.337,48,32.5,48z" fill="#336791"/>
        <path d="M32.5,20c-6.627,0-12,5.373-12,12s5.373,12,12,12s12-5.373,12-12S39.127,20,32.5,20z M32.5,40 c-4.418,0-8-3.582-8-8s3.582-8,8-8s8,3.582,8,8S36.918,40,32.5,40z" fill="#FFFFFF"/>
    </g>
</svg> 