<?xml version="1.0" encoding="UTF-8" standalone="no"?>
<svg xmlns="http://www.w3.org/2000/svg" width="64" height="64" viewBox="0 0 32 32">
    <defs>
        <linearGradient id="a" x1="99.036" x2="94.764" y1="119.461" y2="149.541" gradientTransform="matrix(.25377 0 0 .25377 -18.757 -29.416)" gradientUnits="userSpaceOnUse">
            <stop offset="0" stop-color="#387eb8"/>
            <stop offset="1" stop-color="#366994"/>
        </linearGradient>
        <linearGradient id="b" x1="135.665" x2="134.23" y1="150.45" y2="123.191" gradientTransform="matrix(.25377 0 0 .25377 -18.757 -29.416)" gradientUnits="userSpaceOnUse">
            <stop offset="0" stop-color="#ffe052"/>
            <stop offset="1" stop-color="#ffc331"/>
        </linearGradient>
    </defs>
    <path d="M15.885 2.1c-7.1 0-6.65 3.07-6.65 3.07v3.19h6.752v.96H6.557S2 8.8 2 16c0 7.2 4.557 6.85 4.557 6.85h2.712v-3.302s-.147-4.557 4.476-4.557h7.715s4.327.07 4.327-4.18V6.38S26.224 2.1 15.885 2.1zm-3.732 2.137a1.214 1.214 0 1 1-1.213 1.214 1.214 1.214 0 0 1 1.213-1.214z" fill="url(#a)"/>
    <path d="M16.115 29.9c7.1 0 6.65-3.07 6.65-3.07v-3.19h-6.752v-.96h9.43S30 23.2 30 16c0-7.2-4.557-6.85-4.557-6.85h-2.712v3.302s.147 4.557-4.476 4.557h-7.715s-4.327-.07-4.327 4.18V25.62S5.776 29.9 16.115 29.9zm3.732-2.137a1.214 1.214 0 1 1 1.213-1.214 1.214 1.214 0 0 1-1.213 1.214z" fill="url(#b)"/>
</svg> 