<?xml version="1.0" encoding="UTF-8"?>
<svg width="64px" height="64px" viewBox="0 0 64 64" version="1.1" xmlns="http://www.w3.org/2000/svg">
    <g stroke="none" stroke-width="1" fill="none" fill-rule="evenodd">
        <path d="M64,32c0,17.673-14.327,32-32,32C14.327,64,0,49.673,0,32C0,14.327,14.327,0,32,0C49.673,0,64,14.327,64,32z" fill="#CC0000"/>
        <path d="M28.4,38.6l-3.2-12l-7.2,1.6l0.8,3.2l4-0.8l2.4,8.8L28.4,38.6z M35.2,39.4c-2.4,0-4.4-0.8-6-2.4c-1.6-1.6-2.4-3.6-2.4-6c0-2.4,0.8-4.4,2.4-6c1.6-1.6,3.6-2.4,6-2.4c2.4,0,4.4,0.8,6,2.4c1.6,1.6,2.4,3.6,2.4,6c0,2.4-0.8,4.4-2.4,6C39.6,38.6,37.6,39.4,35.2,39.4z M35.2,36.2c1.6,0,2.8-0.4,3.6-1.2c0.8-0.8,1.2-2,1.2-3.6c0-1.6-0.4-2.8-1.2-3.6c-0.8-0.8-2-1.2-3.6-1.2c-1.6,0-2.8,0.4-3.6,1.2c-0.8,0.8-1.2,2-1.2,3.6c0,1.6,0.4,2.8,1.2,3.6C32.4,35.8,33.6,36.2,35.2,36.2z" fill="#FFFFFF"/>
    </g>
</svg> 