<?xml version="1.0" encoding="UTF-8"?>
<svg width="64px" height="64px" viewBox="0 0 64 64" version="1.1" xmlns="http://www.w3.org/2000/svg">
    <g stroke="none" stroke-width="1" fill="none" fill-rule="evenodd">
        <circle fill="#61DAFB" cx="32" cy="32" r="6"/>
        <path d="M32,44.4c-23.7,0-42.9-5.7-42.9-12.4s19.2-12.4,42.9-12.4s42.9,5.7,42.9,12.4S55.7,44.4,32,44.4z" stroke="#61DAFB" stroke-width="2"/>
        <path d="M44.4,32c0,23.7-5.7,42.9-12.4,42.9S19.6,55.7,19.6,32S25.3-10.9,32-10.9S44.4,8.3,44.4,32z" stroke="#61DAFB" stroke-width="2"/>
        <path d="M19.6,32c0-23.7,5.7-42.9,12.4-42.9s12.4,19.2,12.4,42.9s-5.7,42.9-12.4,42.9S19.6,55.7,19.6,32z" stroke="#61DAFB" stroke-width="2"/>
    </g>
</svg> 