<?xml version="1.0" encoding="UTF-8"?>
<svg width="64px" height="64px" viewBox="0 0 64 64" version="1.1" xmlns="http://www.w3.org/2000/svg">
    <g stroke="none" stroke-width="1" fill="none" fill-rule="evenodd">
        <path d="M58.2,3.365a29.503,29.503 0 0 1,-3.419 6.064A32.094,32.094 0 1 0,9.965 55.372l1.186,1.047a32.08,32.08 0 0 0,52.67 -22.253c0.875,-8.17 -1.524,-18.51 -5.62,-30.8zM14.053,55.261a2.486,2.486 0 1 1,-2.2 -4.47a2.486,2.486 0 0 1,2.2 4.47zM56.56,30.417a26.983,26.983 0 0 1,-24.946 26.846c-9.23,0.607 -17.285,-2.868 -23.192,-10.557a1.486,1.486 0 0 1,0.352 -2.081c0.113,-0.067 0.23,-0.118 0.351,-0.154a1.486,1.486 0 0 1,1.729 0.803a25.807,25.807 0 0 0,20.76 9.489A25.807,25.807 0 0,0,54.04 30.417a25.89,25.89 0 0 0,-9.49 -20.76a1.486,1.486 0 0 1,-0.803 -1.729c0.036,-0.121 0.087,-0.238 0.154,-0.351a1.486,1.486 0 0 1,2.081 -0.352c7.689,5.907 11.164,13.962 10.557,23.192z" fill="#6DB33F"/>
    </g>
</svg> 